<svg xmlns="http://www.w3.org/2000/svg" width="125" height="32.015" viewBox="0 0 125 32.015"><g transform="translate(-49.147 -153.964)"><path d="M-136.222-13.639h2.084l-1.75-3.138a2.6,2.6,0,0,0,1.857-2.794c0-1.688-.667-2.877-3.441-2.877h-4.263v8.808h1.905v-2.924h1.977Zm-3.608-4.6v-2.544h2.274c1.107,0,1.56.262,1.56,1.284,0,1-.476,1.26-1.536,1.26Zm6.334,4.6h1.905l.572-1.45h4l.572,1.45h2.024l-3.56-8.868h-1.976Zm3.1-3.055,1.381-3.507,1.381,3.507Zm10.728,3.186a4.523,4.523,0,0,0,3.643-1.367l-1.286-1.26a2.882,2.882,0,0,1-2.238.892c-2.024,0-2.691-1.01-2.691-2.782,0-1.831.8-2.782,2.679-2.782a2.822,2.822,0,0,1,2.131.832l1.345-1.343a4.456,4.456,0,0,0-3.465-1.272c-2.929,0-4.656,1.379-4.656,4.541C-124.208-15.137-122.97-13.508-119.672-13.508Zm4.977-.131h6.68v-1.688h-4.727v-1.95h4.56v-1.7h-4.56v-1.712h4.679v-1.759h-6.632Zm13.407,0h1.941V-16.73l3.512-5.718h-2.012l-2.429,3.97-2.429-3.97h-2.1l3.512,5.718Zm10.1.143c2.81,0,4.679-1.236,4.679-4.553s-1.869-4.541-4.679-4.541-4.667,1.236-4.667,4.541S-94-13.5-91.191-13.5Zm0-1.712c-2.024,0-2.7-1.082-2.7-2.805s.679-2.794,2.7-2.794,2.7,1.07,2.7,2.794S-89.167-15.208-91.191-15.208Zm9.883,1.736c3.715,0,4.036-1.843,4.036-3.531v-5.444h-1.893v5.195c0,1.355-.345,2.057-2.119,2.057s-2.107-.749-2.107-2.057v-5.195h-1.953V-17C-85.345-15.315-85.035-13.472-81.308-13.472Zm11.252-.166h2.084l-1.75-3.138a2.6,2.6,0,0,0,1.857-2.794c0-1.688-.667-2.877-3.441-2.877h-4.263v8.808h1.905v-2.924h1.977Zm-3.608-4.6v-2.544h2.274c1.107,0,1.56.262,1.56,1.284,0,1-.476,1.26-1.536,1.26Zm9.847,4.6h1.953v-3.424h4.346V-18.8h-4.346v-1.89H-57.4v-1.759h-6.418Zm11.835.143c2.81,0,4.679-1.236,4.679-4.553s-1.869-4.541-4.679-4.541-4.667,1.236-4.667,4.541S-54.792-13.5-51.982-13.5Zm0-1.712c-2.024,0-2.7-1.082-2.7-2.805s.679-2.794,2.7-2.794,2.7,1.07,2.7,2.794S-49.958-15.208-51.982-15.208ZM-40.5-13.639h2.084l-1.75-3.138a2.6,2.6,0,0,0,1.857-2.794c0-1.688-.667-2.877-3.441-2.877h-4.263v8.808h1.905v-2.924h1.977Zm-3.608-4.6v-2.544h2.274c1.107,0,1.56.262,1.56,1.284,0,1-.476,1.26-1.536,1.26Zm7.287,4.6h3.12c3.477,0,4.965-.975,4.965-4.41,0-3.495-1.441-4.4-4.917-4.4h-3.167Zm1.953-1.7V-20.7h1.238c2.524,0,2.929.666,2.929,2.651s-.488,2.71-2.893,2.71Z" transform="translate(197.268 186.658)" fill="#fff"/><path d="M-38.15-5.4a1.721,1.721,0,0,0,1.365-.509l-.409-.39a1.167,1.167,0,0,1-.922.357c-.875,0-1.227-.447-1.227-1.27s.39-1.265,1.222-1.265a1.224,1.224,0,0,1,.894.338l.418-.414a1.749,1.749,0,0,0-1.308-.48A1.609,1.609,0,0,0-39.924-7.22C-39.924-6.04-39.4-5.4-38.15-5.4Zm2.135-.052h.575V-6.991h1.864v1.536H-33V-8.979h-.575v1.417H-35.44V-8.979h-.575Zm3.68,0h.575l.262-.675h1.726l.262.675h.594L-30.333-9h-.59ZM-31.3-6.663l.661-1.65.661,1.65Zm3.048,1.208h2.377v-.528h-1.8v-3h-.575Zm3.053,0h2.377v-.528h-1.8v-3H-25.2Zm3.053,0h2.506V-6h-1.93V-7h1.864v-.547H-21.57v-.884h1.911v-.552h-2.487Zm3.343,0h.561V-8.123l1.95,2.668h.528V-8.979h-.561v2.544L-18.18-8.979H-18.8Zm5.568.052c1.293,0,1.617-.566,1.617-1.55v-.5h-1.659v.518h1.089v.09c0,.623-.209.927-1.022.927-.922,0-1.217-.423-1.217-1.3,0-.846.38-1.265,1.222-1.265a1.251,1.251,0,0,1,.946.338l.414-.423A1.793,1.793,0,0,0-13.2-9.036,1.594,1.594,0,0,0-15-7.22C-15-6.036-14.566-5.4-13.235-5.4Zm2.368-.052h2.506V-6h-1.93V-7h1.864v-.547h-1.864v-.884H-8.38v-.552h-2.487Z" transform="translate(135.892 163)" fill="#fff"/><path d="M112.541,1082.906l-.046-.005-63.348-7.333V1051.5H88.886v.794H49.94v22.568l62.6,7.246,60.813-7.245v-22.569H133.541v-.794h40.605v24.067l-.35.042Z" transform="translate(0 -896.927)" fill="#fff"/><path d="M37.643-.208H0V-1H37.643Z" transform="translate(51.268 157.95)" fill="#fff"/><path d="M37.643-.208H0V-1H37.643Z" transform="translate(133.475 157.95)" fill="#fff"/></g></svg>