<svg xmlns="http://www.w3.org/2000/svg" width="27.016" height="19" viewBox="0 0 27.016 19"><path d="M20.9-896.588c-1.55-1.912-1.941-1.96-6.651-1.96H12.779c-4.715,0-5.1.053-6.651,1.96-1.362,1.674-2.773,3.088-4.082,3.088a1.781,1.781,0,0,1-.754-.166c-1.507-.707-1.742-4.5-.464-9.759s2.629-8.048,5.336-8.838a5.414,5.414,0,0,1,1.55-.237c1.664,0,2.828.873,5.795.873s4.13-.873,5.794-.873a5.474,5.474,0,0,1,1.55.237c2.707.79,4.058,3.581,5.336,8.838s1.043,9.046-.458,9.759a1.8,1.8,0,0,1-.754.166C23.669-893.5,22.251-894.914,20.9-896.588Zm-2.81-5.7A1.2,1.2,0,0,0,19.3-901.1a1.2,1.2,0,0,0,1.212-1.187,1.2,1.2,0,0,0-1.212-1.194A1.2,1.2,0,0,0,18.085-902.29ZM3.861-904.9a2.363,2.363,0,0,0,2.364,2.352A2.351,2.351,0,0,0,8.589-904.9a2.359,2.359,0,0,0-2.364-2.352A2.363,2.363,0,0,0,3.861-904.9Zm16.871,0a1.2,1.2,0,0,0,1.212,1.194,1.2,1.2,0,0,0,1.212-1.194,1.2,1.2,0,0,0-1.212-1.194A1.2,1.2,0,0,0,20.732-904.9Zm-5.294,0a1.2,1.2,0,0,0,1.212,1.194,1.2,1.2,0,0,0,1.212-1.194,1.2,1.2,0,0,0-1.212-1.194A1.2,1.2,0,0,0,15.438-904.9Zm2.647-2.607a1.2,1.2,0,0,0,1.212,1.194,1.2,1.2,0,0,0,1.212-1.194A1.2,1.2,0,0,0,19.3-908.7,1.2,1.2,0,0,0,18.085-907.511ZM5.1-904.93a1.041,1.041,0,0,1,1.047-1.036A1.041,1.041,0,0,1,7.2-904.93a1.045,1.045,0,0,1-1.047,1.037A1.045,1.045,0,0,1,5.1-904.93Z" transform="translate(0 912.5)" fill="#fff"/></svg>