<svg xmlns="http://www.w3.org/2000/svg" xmlns:xlink="http://www.w3.org/1999/xlink" width="109.517" height="112.833" viewBox="0 0 109.517 112.833"><defs><filter id="a" x="3.684" y="12.833" width="105.833" height="100" filterUnits="userSpaceOnUse"><feOffset dy="5" input="SourceAlpha"/><feGaussianBlur stdDeviation="5" result="b"/><feFlood flood-opacity="0.349"/><feComposite operator="in" in2="b"/><feComposite in="SourceGraphic"/></filter></defs><g transform="translate(-150.316 -175.167)"><g transform="matrix(1, 0, 0, 1, 150.32, 175.17)" filter="url(#a)"><path d="M76.656,11.063H64.625V7.417A2.925,2.925,0,0,0,61.708,4.5H20.875a2.925,2.925,0,0,0-2.917,2.917v3.646H5.927a2.56,2.56,0,0,0-2.552,2.552h0c0,7.529,1.422,12.031,4.12,16.479A14.843,14.843,0,0,0,17.758,37.44a1.5,1.5,0,0,1,1.13.893c1.13,2.807,3.682,6.344,9.315,9.516a35.15,35.15,0,0,0,9.424,3.937,1.463,1.463,0,0,1,1.13,1.422V67.938A1.463,1.463,0,0,1,37.3,69.4H25.341a2.614,2.614,0,0,0-2.625,2.424,2.555,2.555,0,0,0,2.552,2.68h32.01A2.614,2.614,0,0,0,59.9,72.076a2.555,2.555,0,0,0-2.552-2.68H45.32a1.463,1.463,0,0,1-1.458-1.458V53.227a1.463,1.463,0,0,1,1.13-1.422,36.009,36.009,0,0,0,9.424-3.938c5.633-3.172,8.185-6.708,9.315-9.516a1.46,1.46,0,0,1,1.13-.893,14.843,14.843,0,0,0,10.263-7.346c2.661-4.466,4.083-8.969,4.083-16.5h0A2.56,2.56,0,0,0,76.656,11.063Zm-58.7,20.161a.733.733,0,0,1-.984.693A10.622,10.622,0,0,1,11.4,26.648a19.2,19.2,0,0,1-2.753-8.9A1.461,1.461,0,0,1,10.1,16.167h6.4a1.463,1.463,0,0,1,1.458,1.458Zm53.229-4.576a10.622,10.622,0,0,1-5.578,5.268.733.733,0,0,1-.984-.693v-13.6a1.463,1.463,0,0,1,1.458-1.458h6.4a1.461,1.461,0,0,1,1.458,1.586A19.418,19.418,0,0,1,71.188,26.648Z" transform="translate(15.31 18.33)" fill="#68d9fd"/></g><text transform="translate(207 228)" fill="#00142e" font-size="25" font-family="SegoeUI-Bold, Segoe UI" font-weight="700"><tspan x="-7.19" y="0">1</tspan></text><path d="M18.017,8.643H12.636L11,3.763a.593.593,0,0,0-1.112,0L8.253,8.643H2.835a.587.587,0,0,0-.585.585.43.43,0,0,0,.011.1.562.562,0,0,0,.245.413l4.423,3.117-1.7,4.935a.587.587,0,0,0,.2.658.566.566,0,0,0,.329.143.717.717,0,0,0,.366-.132l4.317-3.077,4.317,3.077a.686.686,0,0,0,.366.132.526.526,0,0,0,.326-.143.58.58,0,0,0,.2-.658l-1.7-4.935,4.386-3.146.106-.091a.559.559,0,0,0-.432-.977Z" transform="translate(236.707 249.625)" fill="#68d9fd"/><path d="M18.3,8.738H12.822L11.158,3.77a.6.6,0,0,0-1.132,0L8.361,8.738H2.846a.6.6,0,0,0-.6.6.438.438,0,0,0,.011.1.572.572,0,0,0,.25.421l4.5,3.173L5.285,18.051a.6.6,0,0,0,.2.67.576.576,0,0,0,.335.145.73.73,0,0,0,.372-.134L10.592,15.6l4.394,3.132a.7.7,0,0,0,.372.134.535.535,0,0,0,.331-.145.59.59,0,0,0,.2-.67l-1.728-5.024,4.465-3.2.108-.093a.569.569,0,0,0-.439-.994Z" transform="translate(148.066 221.879)" fill="#68d9fd"/><path d="M17.852,8.588H12.527L10.909,3.759a.586.586,0,0,0-1.1,0L8.19,8.588H2.829a.581.581,0,0,0-.579.579.426.426,0,0,0,.011.1.556.556,0,0,0,.243.409L6.88,12.758,5.2,17.641a.581.581,0,0,0,.2.652.56.56,0,0,0,.326.141.71.71,0,0,0,.362-.13l4.272-3.044L14.63,18.3a.678.678,0,0,0,.362.13.52.52,0,0,0,.322-.141.574.574,0,0,0,.2-.652l-1.68-4.883,4.34-3.113.1-.09a.554.554,0,0,0-.427-.967Z" transform="translate(218.954 171.792)" fill="#68d9fd"/></g></svg>