<svg xmlns="http://www.w3.org/2000/svg" xmlns:xlink="http://www.w3.org/1999/xlink" width="20" height="18" viewBox="0 0 20 18"><defs><clipPath id="a"><rect width="20" height="18" transform="translate(0 0.31)" fill="#fff" opacity="0.9"/></clipPath></defs><g transform="translate(0 -0.31)" clip-path="url(#a)"><path d="M17.932,5.791l-.682-.516h.016V1.484H15.7V4.1L10.869.451a2.414,2.414,0,0,0-2.9,0L.9,5.791A2.235,2.235,0,0,0,0,7.582V18.164H7.063V11.34a.773.773,0,0,1,.785-.758h3.139a.773.773,0,0,1,.785.758v6.823h7.063V7.582a2.235,2.235,0,0,0-.9-1.791Zm-.666,10.857H13.342V11.34a2.318,2.318,0,0,0-2.354-2.274H7.848A2.318,2.318,0,0,0,5.494,11.34v5.307H1.57V7.582a.745.745,0,0,1,.3-.6l7.063-5.34a.8.8,0,0,1,.967,0l7.063,5.34a.745.745,0,0,1,.3.6v9.065Z" transform="translate(0.33 0.146)" fill="#fff"/></g></svg>