<svg xmlns="http://www.w3.org/2000/svg" xmlns:xlink="http://www.w3.org/1999/xlink" width="65.016" height="55" viewBox="0 0 65.016 55"><defs><filter id="a" x="0" y="0" width="65.016" height="55" filterUnits="userSpaceOnUse"><feOffset dy="3" input="SourceAlpha"/><feGaussianBlur stdDeviation="5" result="b"/><feFlood flood-opacity="0.349"/><feComposite operator="in" in2="b"/><feComposite in="SourceGraphic"/></filter></defs><g transform="matrix(1, 0, 0, 1, 0, 0)" filter="url(#a)"><path d="M27.083-891.563c-2.009-2.516-2.516-2.579-8.62-2.579h-1.9c-6.111,0-6.611.07-8.62,2.579-1.766,2.2-3.595,4.063-5.29,4.063a2.28,2.28,0,0,1-.977-.219c-1.954-.931-2.258-5.924-.6-12.84s3.407-10.589,6.916-11.629A6.921,6.921,0,0,1,10-912.5c2.157,0,3.665,1.149,7.51,1.149s5.353-1.149,7.51-1.149a7,7,0,0,1,2.009.312c3.509,1.039,5.26,4.712,6.917,11.629s1.352,11.9-.594,12.84a2.306,2.306,0,0,1-.977.219C30.677-887.5,28.84-889.36,27.083-891.563Zm-3.642-7.5a1.569,1.569,0,0,0,1.571,1.562,1.569,1.569,0,0,0,1.571-1.562,1.566,1.566,0,0,0-1.571-1.571A1.567,1.567,0,0,0,23.441-899.066ZM5-902.5a3.086,3.086,0,0,0,3.064,3.1,3.07,3.07,0,0,0,3.064-3.1,3.081,3.081,0,0,0-3.064-3.1A3.086,3.086,0,0,0,5-902.5Zm21.866,0a1.571,1.571,0,0,0,1.571,1.57,1.571,1.571,0,0,0,1.571-1.57,1.571,1.571,0,0,0-1.571-1.57A1.571,1.571,0,0,0,26.871-902.5Zm-6.862,0a1.571,1.571,0,0,0,1.571,1.57,1.571,1.571,0,0,0,1.57-1.57,1.571,1.571,0,0,0-1.57-1.57A1.571,1.571,0,0,0,20.01-902.5Zm3.431-3.431a1.571,1.571,0,0,0,1.571,1.57,1.571,1.571,0,0,0,1.571-1.57,1.571,1.571,0,0,0-1.571-1.57A1.571,1.571,0,0,0,23.441-905.936Zm-16.826,3.4A1.36,1.36,0,0,1,7.971-903.9a1.36,1.36,0,0,1,1.357,1.364,1.364,1.364,0,0,1-1.357,1.364A1.364,1.364,0,0,1,6.614-902.54Z" transform="translate(15 924.5)" fill="#fff"/></g></svg>