<svg xmlns="http://www.w3.org/2000/svg" xmlns:xlink="http://www.w3.org/1999/xlink" width="335" height="24.858" viewBox="0 0 335 24.858"><defs><clipPath id="a"><rect width="335" height="24.858" transform="translate(-195.835)" fill="none"/></clipPath><clipPath id="c"><rect width="33.448" height="19.328" fill="none"/></clipPath><clipPath id="d"><rect width="51.99" height="24.762" fill="none"/></clipPath><clipPath id="e"><rect width="48.156" height="24.732" fill="none"/></clipPath><clipPath id="f"><rect width="265.362" height="12.226" transform="translate(-162)" fill="none"/></clipPath></defs><g transform="translate(195.835)"><g clip-path="url(#a)"><g transform="translate(0 0)"><g clip-path="url(#a)"><g transform="translate(45.22 5.53)" opacity="0.5"><g clip-path="url(#c)"><path d="M141.273,13.2,116.754,32.514l-8.929-.026,25.406-19.3Z" transform="translate(-107.825 -13.186)" fill="#31e2ff" fill-rule="evenodd"/></g></g><g transform="translate(60.911 0)" opacity="0.5"><g transform="translate(0 0)"><g clip-path="url(#d)"><path d="M145.238,24.73,182.369,0l14.859.038L160.655,24.762Z" transform="translate(-145.238 0)" fill="#31e2ff" fill-rule="evenodd"/></g></g></g><g transform="translate(91.01 0.101)" opacity="0.5"><g clip-path="url(#e)"><path d="M217.007,24.973,252.581.241l12.581.029L229.445,24.96Z" transform="translate(-217.007 -0.241)" fill="#31e2ff" fill-rule="evenodd"/></g></g><g transform="translate(0 12.632)" opacity="0.5"><g transform="translate(-12.835)"><g transform="translate(-21)" clip-path="url(#f)"><path d="M83.638,30.323l-273.6-.2L-190,42.188l258.248.3Z" transform="translate(19.724 -30.12)" fill="#31e2ff" fill-rule="evenodd"/></g></g></g></g></g></g></g></svg>