<svg xmlns="http://www.w3.org/2000/svg" width="13.75" height="20" viewBox="0 0 13.75 20"><path d="M3.752,17.748a1.25,1.25,0,0,0,.209.691l.668,1A1.25,1.25,0,0,0,5.67,20H8.08a1.25,1.25,0,0,0,1.041-.558l.668-1A1.25,1.25,0,0,0,10,17.748l0-1.5H3.75l0,1.5ZM0,6.875A6.837,6.837,0,0,0,1.7,11.4,11.226,11.226,0,0,1,3.741,14.97l0,.03H10l0-.03A11.225,11.225,0,0,1,12.048,11.4,6.873,6.873,0,1,0,0,6.875ZM6.875,3.75A3.129,3.129,0,0,0,3.75,6.875a.625.625,0,0,1-1.25,0A4.38,4.38,0,0,1,6.875,2.5a.625.625,0,1,1,0,1.25Z" transform="translate(0 0)" fill="#fff"/></svg>