<svg xmlns="http://www.w3.org/2000/svg" xmlns:xlink="http://www.w3.org/1999/xlink" width="47.403" height="44.499" viewBox="0 0 47.403 44.499"><defs><filter id="a" x="0" y="0" width="47.403" height="44.499" filterUnits="userSpaceOnUse"><feOffset dy="5" input="SourceAlpha"/><feGaussianBlur stdDeviation="5" result="b"/><feFlood flood-opacity="0.349"/><feComposite operator="in" in2="b"/><feComposite in="SourceGraphic"/></filter></defs><g transform="matrix(1, 0, 0, 1, 0, 0)" filter="url(#a)"><path d="M21.751,12.84,15.357,6.859A.327.327,0,0,0,15.1,6.75c-.2.009-.453.15-.453.362v3a.194.194,0,0,1-.163.186c-6.357.974-9.035,5.732-9.982,10.671-.036.195.227.376.349.222a11.556,11.556,0,0,1,9.606-4.866.224.224,0,0,1,.19.217v2.945a.389.389,0,0,0,.657.24l6.439-6.085a.5.5,0,0,0,.159-.381A.607.607,0,0,0,21.751,12.84Z" transform="translate(10.5 3.25)" fill="#fff"/></g></svg>