<svg xmlns="http://www.w3.org/2000/svg" xmlns:xlink="http://www.w3.org/1999/xlink" width="75" height="75" viewBox="0 0 75 75"><defs><clipPath id="a"><rect width="31.281" height="13.771" fill="#fff"/></clipPath></defs><g transform="translate(-320 -10)"><g transform="translate(320 10)" fill="#00142e" stroke="#91c7e6" stroke-width="2"><circle cx="37.5" cy="37.5" r="37.5" stroke="none"/><circle cx="37.5" cy="37.5" r="36.5" fill="none"/></g><g transform="translate(1 -7.265)"><g transform="translate(341 35.265)"><g transform="translate(0 0)" clip-path="url(#a)"><path d="M107.828,16.035s4.051,1.441,4.051,3.691-6.888,4.187-11.389,4.187V25.37c1.668,0,12.844-.917,12.844-5.427C113.334,17.07,107.828,16.035,107.828,16.035Z" transform="translate(-82.145 -13.108)" fill="#fff"/><path d="M16.282,24.468l-3.85-1.837a.254.254,0,0,0-.363.229v1.006c-4.418-.307-10.114-2.093-10.114-4.14,0-2.251,4.052-3.692,4.052-3.692S.5,17.07.5,19.943c0,3.852,8.15,5.082,11.569,5.36v1.231a.254.254,0,0,0,.363.229l3.85-1.836A.254.254,0,0,0,16.282,24.468Z" transform="translate(-0.409 -13.108)" fill="#fff"/><path d="M34.465,13.169l.571-.923a3.494,3.494,0,0,0,1.791.524c.79,0,1.111-.172,1.111-.845,0-.587-.25-.8-1.189-.8H35.732V10.1h1c.782,0,1.04-.141,1.04-.642,0-.462-.219-.594-.97-.594a3.294,3.294,0,0,0-1.572.4l-.626-.9a4.548,4.548,0,0,1,2.315-.548c1.338,0,2.057.352,2.057,1.392,0,.806-.211,1.158-.688,1.33.587.156.845.524.845,1.486,0,1.416-.931,1.776-2.245,1.776a4.2,4.2,0,0,1-2.425-.626" transform="translate(-28.173 -6.385)" fill="#fff"/><path d="M64.625,11.618c0-2.378.681-3.293,3.567-3.293h.54V9.373h-.579c-2.151,0-2.245.673-2.308,1.353.266-.36.806-.532,1.729-.532,1.494,0,1.948.72,1.948,1.948,0,1.3-.61,2.065-2.354,2.065-1.823,0-2.542-.868-2.542-2.589m3.7.571c0-.626-.242-1.025-1.142-1.025-.837,0-1.283.313-1.283.962,0,.782.422,1.079,1.275,1.079.962,0,1.15-.4,1.15-1.017" transform="translate(-52.827 -6.805)" fill="#fff"/><path d="M95.686,10.8c0-1.956.68-2.988,2.542-2.988,1.83,0,2.526,1.033,2.526,2.988s-.7,2.988-2.526,2.988c-1.862,0-2.542-1.041-2.542-2.988m3.8,0c0-1.228-.25-1.87-1.259-1.87s-1.275.642-1.275,1.87.258,1.924,1.275,1.924,1.259-.7,1.259-1.924" transform="translate(-78.218 -6.385)" fill="#fff"/><path d="M127.2,1.108a1.1,1.1,0,1,1,2.194,0,1.1,1.1,0,1,1-2.194,0m1.624.018c0-.319-.132-.57-.529-.57s-.525.251-.525.57.128.57.525.57.529-.251.529-.57" transform="translate(-103.979 0)" fill="#fff"/></g></g><text transform="translate(357 59.265)" fill="#fff" font-size="10" font-family="SegoeUI-Bold, Segoe UI" font-weight="700"><tspan x="-20.515" y="0">ON-</tspan><tspan y="0" fill="#71ce55">LINE</tspan><tspan x="-23.37" y="14">Expo 360</tspan><tspan y="14" font-size="5.833" baseline-shift="3.333000104627212">o</tspan></text></g></g></svg>