<svg xmlns="http://www.w3.org/2000/svg" xmlns:xlink="http://www.w3.org/1999/xlink" width="32.544" height="59.034" viewBox="0 0 32.544 59.034"><defs><clipPath id="a"><rect width="23" height="24.299" fill="#fff"/></clipPath></defs><g transform="translate(-190.728 -677.5)"><path d="M0-10V36" transform="translate(207.5 687.5)" fill="none" stroke="#fff" stroke-width="1"/><circle cx="4.5" cy="4.5" r="4.5" transform="translate(203 716)" fill="#fff"/><g transform="translate(211.772 704.466) rotate(60)"><g clip-path="url(#a)"><g transform="translate(0 0)"><g clip-path="url(#a)"><g transform="translate(0 0)" opacity="0.5"><g transform="translate(0 0)"><g clip-path="url(#a)"><path d="M23,17.618a12.237,12.237,0,0,1-2.784,3.616l-.826-.927a10.9,10.9,0,0,0,2.5-3.248Zm-3.5,4.2A12.118,12.118,0,0,1,12.149,24.3V23.057a10.838,10.838,0,0,0,6.6-2.22ZM8.017,23.576A12.156,12.156,0,0,1,2.29,19.247l1-.723a10.97,10.97,0,0,0,5.145,3.888ZM1.675,18.305A12.076,12.076,0,0,1,0,12.15H1.242a10.885,10.885,0,0,0,1.5,5.529Zm5.193-17.1q.307-.149.613-.275t.625-.24A12.062,12.062,0,0,1,10.094.175,12.234,12.234,0,0,1,12.149,0V1.242A11.01,11.01,0,0,0,10.3,1.4a10.874,10.874,0,0,0-1.785.463q-.285.1-.562.216t-.549.247ZM13.837.118a12.136,12.136,0,0,1,6.1,2.71l-.8.951a10.813,10.813,0,0,0-5.477-2.433Z" transform="translate(0 0)" fill="#fff"/></g></g></g></g></g></g></g></g></svg>