<svg xmlns="http://www.w3.org/2000/svg" xmlns:xlink="http://www.w3.org/1999/xlink" width="47.285" height="46.207" viewBox="0 0 47.285 46.207"><defs><clipPath id="a"><rect width="23" height="24.299" transform="translate(0 0)" fill="#fff"/></clipPath></defs><g transform="translate(0 0.5)"><g transform="translate(26.57 45.707) rotate(180)"><line y1="36" transform="translate(13.285 9.707)" fill="none" stroke="#fff" stroke-width="1"/><ellipse cx="4.5" cy="4.5" rx="4.5" ry="4.5" transform="translate(8.785 8.207)" fill="#fff"/><g transform="matrix(-0.105, 0.995, -0.995, -0.105, 26.57, 2.54)"><g clip-path="url(#a)"><g transform="translate(0 0)"><g clip-path="url(#a)"><g transform="translate(0 0)" opacity="0.5"><g transform="translate(0)"><g clip-path="url(#a)"><path d="M23,6.681a12.237,12.237,0,0,0-2.784-3.616l-.826.927a10.9,10.9,0,0,1,2.5,3.248Zm-3.5-4.2A12.118,12.118,0,0,0,12.149,0V1.242a10.838,10.838,0,0,1,6.6,2.22ZM8.017.723A12.156,12.156,0,0,0,2.29,5.053l1,.723A10.97,10.97,0,0,1,8.439,1.888ZM1.675,5.994A12.076,12.076,0,0,0,0,12.149H1.242a10.885,10.885,0,0,1,1.5-5.529Zm5.193,17.1q.307.149.613.275t.625.24a12.062,12.062,0,0,0,1.989.516,12.234,12.234,0,0,0,2.055.175V23.057A11.01,11.01,0,0,1,10.3,22.9a10.874,10.874,0,0,1-1.785-.463q-.285-.1-.562-.216t-.549-.247Zm6.969,1.089a12.136,12.136,0,0,0,6.1-2.71l-.8-.951a10.813,10.813,0,0,1-5.477,2.433Z" transform="translate(0 0)" fill="#fff"/></g></g></g></g></g></g></g></g><line x2="34" transform="translate(13.285 0)" fill="none" stroke="#fff" stroke-width="1"/></g></svg>