<svg xmlns="http://www.w3.org/2000/svg" xmlns:xlink="http://www.w3.org/1999/xlink" width="47.531" height="55.501" viewBox="0 0 47.531 55.501"><defs><filter id="a" x="0" y="0" width="47.531" height="55.501" filterUnits="userSpaceOnUse"><feOffset dy="5" input="SourceAlpha"/><feGaussianBlur stdDeviation="5" result="b"/><feFlood flood-opacity="0.349"/><feComposite operator="in" in2="b"/><feComposite in="SourceGraphic"/></filter></defs><g transform="matrix(1, 0, 0, 1, 0, 0)" filter="url(#a)"><path d="M4.784,22.629a1.594,1.594,0,0,0,.267.881L5.9,24.79a1.593,1.593,0,0,0,1.327.711H10.3a1.593,1.593,0,0,0,1.327-.711l.851-1.28a1.593,1.593,0,0,0,.267-.881l0-1.91H4.782l0,1.91ZM0,8.766a8.717,8.717,0,0,0,2.17,5.766,14.313,14.313,0,0,1,2.6,4.555c0,.013,0,.026.005.039h7.981c0-.013,0-.025.005-.039a14.313,14.313,0,0,1,2.6-4.555A8.764,8.764,0,1,0,0,8.766ZM8.766,4.781A3.989,3.989,0,0,0,4.781,8.766a.8.8,0,0,1-1.594,0A5.584,5.584,0,0,1,8.766,3.188a.8.8,0,0,1,0,1.594Z" transform="translate(15 10)" fill="#fff"/></g></svg>