<svg xmlns="http://www.w3.org/2000/svg" xmlns:xlink="http://www.w3.org/1999/xlink" width="57.083" height="55" viewBox="0 0 57.083 55"><defs><filter id="a" x="0" y="0" width="57.083" height="55" filterUnits="userSpaceOnUse"><feOffset dy="5" input="SourceAlpha"/><feGaussianBlur stdDeviation="5" result="b"/><feFlood flood-opacity="0.349"/><feComposite operator="in" in2="b"/><feComposite in="SourceGraphic"/></filter></defs><g transform="matrix(1, 0, 0, 1, 0, 0)" filter="url(#a)"><path d="M29.547,6.844h-4.3v-1.3A1.045,1.045,0,0,0,24.208,4.5H9.625A1.045,1.045,0,0,0,8.583,5.542v1.3h-4.3a.914.914,0,0,0-.911.911h0a10.331,10.331,0,0,0,1.471,5.885,5.3,5.3,0,0,0,3.665,2.624.535.535,0,0,1,.4.319,7.076,7.076,0,0,0,3.327,3.4,12.554,12.554,0,0,0,3.366,1.406.523.523,0,0,1,.4.508v5.26a.522.522,0,0,1-.521.521H11.22a.934.934,0,0,0-.937.866.913.913,0,0,0,.911.957H22.626a.934.934,0,0,0,.938-.866.913.913,0,0,0-.911-.957h-4.3a.522.522,0,0,1-.521-.521V21.9a.522.522,0,0,1,.4-.508A12.86,12.86,0,0,0,21.6,19.988a7.076,7.076,0,0,0,3.327-3.4.521.521,0,0,1,.4-.319A5.3,5.3,0,0,0,29,13.647a10.476,10.476,0,0,0,1.458-5.892h0A.914.914,0,0,0,29.547,6.844Zm-20.964,7.2a.262.262,0,0,1-.352.247A3.794,3.794,0,0,1,6.24,12.41a6.856,6.856,0,0,1-.983-3.177.522.522,0,0,1,.521-.566H8.063a.522.522,0,0,1,.521.521Zm19.01-1.634A3.794,3.794,0,0,1,25.6,14.292a.262.262,0,0,1-.352-.247V9.188a.522.522,0,0,1,.521-.521h2.285a.522.522,0,0,1,.521.566A6.935,6.935,0,0,1,27.594,12.41Z" transform="translate(11.63 5.5)" fill="#fff"/></g></svg>